<mxfile host="app.diagrams.net" modified="2024-02-06T09:21:43.519Z" agent="Mozilla/5.0 (X11; Linux x86_64) AppleWebKit/537.36 (KHTML, like Gecko) Chrome/120.0.0.0 Safari/537.36 OPR/106.0.0.0" version="23.1.1" etag="JgPTB5-MsiDA1JwgeTbd" type="github">
  <diagram name="Page-1" id="ADPk-fOZnsXU4GXVxI8O">
    <mxGraphModel>
      <root>
        <mxCell id="0" />
        <mxCell id="1" parent="0" />
      </root>
    </mxGraphModel>
  </diagram>
</mxfile>
